<svg xmlns="http://www.w3.org/2000/svg" xmlns:xlink="http://www.w3.org/1999/xlink" width="512" height="512" x="0" y="0" viewBox="0 0 1000 1000" style="enable-background:new 0 0 512 512" xml:space="preserve" class=""><g><path d="M407.76 608.26a16 16 0 0 1-14.87-21.93l32.68-82a16.25 16.25 0 0 1 3.55-5.4l246.33-246.35a16 16 0 0 1 23 .37l48.47 48.47a16 16 0 0 1 .52 23.13L501.11 570.88a16.21 16.21 0 0 1-5.39 3.55l-82 32.69a16.09 16.09 0 0 1-5.96 1.14zm46.32-89.06-17.7 44.42 44.43-17.7 232.67-232.67-26.72-26.73z" fill="#ed2aff" opacity="1" data-original="#000000" class=""></path><path d="M754.12 336.48A41.79 41.79 0 0 1 725 324.72a16 16 0 0 1 22.28-23 9.85 9.85 0 0 0 12.41 1l104.22-71.65-27.46-8.64a16 16 0 0 1-10.35-20.39 18.43 18.43 0 0 0-4.47-19.04 18.65 18.65 0 0 0-20.58-3.88 16 16 0 0 1-21.73-9.83l-10.44-33.2-71.64 104.24a9.88 9.88 0 0 0 1 12.44 16 16 0 1 1-23 22.24 42 42 0 0 1-4.39-52.81l90.26-131.26a16 16 0 0 1 28.45 4.26l15.89 50.52a50.84 50.84 0 0 1 38.8 14.68 50.19 50.19 0 0 1 14.85 35.67l45.7 14.37a16 16 0 0 1 4.26 28.45L777.8 329.14a41.75 41.75 0 0 1-23.68 7.34zM407.76 916C229.24 916 84 770.77 84 592.26S229.24 268.5 407.76 268.5A322.23 322.23 0 0 1 609.17 339a16 16 0 0 1 1.34 23.82L454.08 519.2l-17.7 44.42 44.43-17.7L637.23 389.5a16 16 0 0 1 23.82 1.35 322.23 322.23 0 0 1 70.45 201.41C731.5 770.77 586.27 916 407.76 916zm0-615.5C246.88 300.5 116 431.38 116 592.26S246.88 884 407.76 884 699.5 753.12 699.5 592.26a287.94 287.94 0 0 0-52.69-167.08l-145.7 145.7a16.21 16.21 0 0 1-5.39 3.55l-82 32.69a16 16 0 0 1-20.79-20.79l32.68-82a16.25 16.25 0 0 1 3.55-5.4l145.67-145.74a287.93 287.93 0 0 0-167.07-52.69z" fill="#ed2aff" opacity="1" data-original="#000000" class=""></path><path d="M407.76 841.83c-137.63 0-249.59-112-249.59-249.57s112-249.59 249.59-249.59a247.37 247.37 0 0 1 148.08 48.79 16 16 0 0 1 1.8 24.18L454.08 519.2l-17.7 44.42 44.43-17.7 103.56-103.56a16 16 0 0 1 24.18 1.8 247.4 247.4 0 0 1 48.78 148.1c0 137.61-111.96 249.57-249.57 249.57zm0-467.16c-120 0-217.59 97.61-217.59 217.59s97.61 217.57 217.59 217.57 217.57-97.6 217.57-217.57a215.41 215.41 0 0 0-32-113.57l-92.19 92.19a16.21 16.21 0 0 1-5.39 3.55l-82 32.69a16 16 0 0 1-20.79-20.79l32.68-82a16.1 16.1 0 0 1 3.55-5.4l92.19-92.19a215.43 215.43 0 0 0-113.62-32.07z" fill="#ed2aff" opacity="1" data-original="#000000" class=""></path><path d="M407.76 767.66c-96.73 0-175.42-78.68-175.42-175.4S311 416.84 407.76 416.84a174.92 174.92 0 0 1 93.89 27.23 16 16 0 0 1 2.74 24.82l-50.31 50.31-17.7 44.42 44.43-17.7 50.31-50.31a16 16 0 0 1 24.82 2.74 175 175 0 0 1 27.22 93.91c0 96.74-78.68 175.4-175.4 175.4zm0-318.82c-79.08 0-143.42 64.34-143.42 143.42s64.34 143.4 143.42 143.4 143.4-64.33 143.4-143.4a143.24 143.24 0 0 0-12.59-58.85l-37.46 37.47a16.21 16.21 0 0 1-5.39 3.55l-82 32.69a16 16 0 0 1-20.79-20.79l32.68-82a16.25 16.25 0 0 1 3.55-5.4l37.47-37.47a143.14 143.14 0 0 0-58.87-12.62z" fill="#ed2aff" opacity="1" data-original="#000000" class=""></path></g></svg>