<svg xmlns="http://www.w3.org/2000/svg" xmlns:xlink="http://www.w3.org/1999/xlink" width="512" height="512" x="0" y="0" viewBox="0 0 512 512" style="enable-background:new 0 0 512 512" xml:space="preserve" class=""><g><path d="M256 483.769c-5.762 0-11.523-2.193-15.91-6.58l-30.458-30.458H52.5c-28.949 0-52.5-23.551-52.5-52.5v-120c0-28.949 23.551-52.5 52.5-52.5h82.264a7.5 7.5 0 0 1 0 15H52.5c-20.678 0-37.5 16.822-37.5 37.5v120c0 20.678 16.822 37.5 37.5 37.5h158.789c2.938 0 5.701 1.144 7.778 3.222l31.63 31.63c1.417 1.417 3.3 2.197 5.303 2.197s3.887-.78 5.303-2.197l31.63-31.63a10.927 10.927 0 0 1 7.778-3.222h61.298a7.5 7.5 0 0 1 0 15h-59.642l-30.458 30.458c-4.386 4.386-10.147 6.58-15.909 6.58zm203.5-37.038h-67.49a7.5 7.5 0 0 1 0-15h67.49c20.678 0 37.5-16.822 37.5-37.5v-120c0-20.678-16.822-37.5-37.5-37.5H164.764a7.5 7.5 0 0 1 0-15H459.5c28.949 0 52.5 23.551 52.5 52.5v120c0 28.949-23.551 52.5-52.5 52.5zm-88.216-57.32c-18.745 0-33.995-15.25-33.995-33.995v-42.371c0-18.745 15.25-33.995 33.995-33.995s33.994 15.25 33.994 33.995v42.371c0 18.745-15.25 33.995-33.994 33.995zm0-95.36c-10.474 0-18.995 8.521-18.995 18.995v42.371c0 10.474 8.521 18.995 18.995 18.995s18.994-8.521 18.994-18.995v-42.371c0-10.474-8.521-18.995-18.994-18.995zm-81.411 94.404c-17.542 0-18.806-.423-19.809-.757-2.528-.842-4.417-2.748-5.18-5.228-1.334-4.338.545-6.799 6.124-14.103 4.665-6.109 13.349-17.479 27.896-38.264 4.433-6.333 7.29-12.03 8.497-16.939l.336-2.627c-.229-8.593-7.291-15.512-15.938-15.512-7.603 0-14.183 5.402-15.645 12.846-.799 4.065-4.743 6.708-8.805 5.914a7.5 7.5 0 0 1-5.914-8.805c2.84-14.459 15.61-24.954 30.363-24.954 17.062 0 30.944 13.881 30.944 30.944 0 .318-.02.636-.061.951l-.453 3.544c-.032.25-.076.498-.133.743-1.591 6.865-5.26 14.435-10.902 22.497-11.987 17.127-20.052 27.954-25.189 34.73 8.948.023 21.393-.061 33.028-.207 4.141-.07 7.542 3.264 7.594 7.405s-3.263 7.542-7.405 7.594c-12.97.162-22.428.228-29.348.228zm181.768-.229a7.473 7.473 0 0 1-5.207-2.103l-30.757-29.673v24.276a7.5 7.5 0 0 1-15 0v-75.798a7.5 7.5 0 0 1 15 0v21.354l28.198-25.919a7.5 7.5 0 0 1 10.152 11.043l-32.485 29.859 35.308 34.063a7.5 7.5 0 0 1-5.209 12.898zm-232.847-.685a7.5 7.5 0 0 1-7.5-7.5v-84.12h-12.083a7.5 7.5 0 0 1 0-15h19.583a7.5 7.5 0 0 1 7.5 7.5v91.62a7.5 7.5 0 0 1-7.5 7.5zm-111.55 0H59.21c-5.813 0-10.993-3.254-13.518-8.492-2.523-5.235-1.842-11.311 1.778-15.855 4.127-5.183 10.055-9.482 17.251-12.605-4.184-5.868-6.553-12.984-6.553-20.373V315.95c0-19.312 15.711-35.022 35.022-35.022s35.023 15.711 35.023 35.022v14.266c0 7.374-2.359 14.479-6.522 20.341 7.211 3.128 13.153 7.438 17.293 12.637 3.62 4.544 4.301 10.62 1.778 15.855-2.525 5.238-7.704 8.492-13.518 8.492zm-34.053-91.614c-11.041 0-20.022 8.982-20.022 20.022v14.266c0 7.039 3.757 13.646 9.806 17.24a7.499 7.499 0 0 1-2.312 13.791c-9.487 1.964-17.309 6.079-21.459 11.291l68.041.003c-4.155-5.229-11.981-9.352-21.465-11.315a7.502 7.502 0 0 1-2.326-13.783c6.021-3.597 9.762-10.198 9.762-17.228v-14.266c-.002-11.039-8.985-20.021-20.025-20.021zm82.958 66.336a7.5 7.5 0 0 1-7.5-7.5v-13.145h-13.146a7.5 7.5 0 0 1 0-15h13.146v-13.146a7.5 7.5 0 0 1 15 0v13.146h13.145a7.5 7.5 0 0 1 0 15h-13.145v13.145a7.5 7.5 0 0 1-7.5 7.5zm242.633-167.02c-6.806 0-13.368-7.351-21.406-16.355-1.561-1.749-3.544-3.971-4.877-5.321-1.873.309-4.784.941-7.075 1.438-13.501 2.93-24.165 5.244-29.055-1.486-4.89-6.729.607-16.157 7.566-28.093 1.181-2.025 2.681-4.598 3.554-6.283-.873-1.686-2.373-4.259-3.554-6.284-6.959-11.936-12.456-21.363-7.565-28.093 4.89-6.73 15.555-4.416 29.056-1.485 2.291.497 5.201 1.128 7.073 1.438 1.333-1.351 3.316-3.572 4.877-5.321 9.201-10.307 16.466-18.451 24.38-15.877 7.912 2.571 9.006 13.428 10.392 27.174.235 2.333.534 5.296.818 7.173 1.697.85 4.422 2.05 6.568 2.994 12.646 5.566 22.634 9.962 22.634 18.281s-9.988 12.714-22.633 18.28c-2.146.944-4.872 2.145-6.568 2.995-.284 1.876-.583 4.84-.818 7.173-1.385 13.746-2.48 24.604-10.392 27.174a9.568 9.568 0 0 1-2.975.478zm-24.711-36.863c1.201 0 2.224.151 3.209.471 3.137 1.019 5.578 3.654 11.286 10.048 1.805 2.021 4.767 5.34 7.361 7.928.578-3.619 1.024-8.044 1.295-10.74.859-8.527 1.286-12.094 3.225-14.763s5.2-4.176 13.044-7.629c2.48-1.091 6.551-2.883 9.814-4.551-3.263-1.668-7.334-3.46-9.815-4.552-7.844-3.452-11.104-4.959-13.043-7.628-1.939-2.668-2.365-6.235-3.225-14.763-.271-2.696-.718-7.122-1.295-10.74-2.595 2.588-5.557 5.907-7.362 7.928-5.707 6.393-8.148 9.028-11.285 10.048-3.138 1.02-6.662.322-15.037-1.495-2.648-.575-6.996-1.519-10.616-2.087 1.66 3.268 3.9 7.11 5.265 9.451 4.317 7.404 6.069 10.54 6.069 13.839s-1.752 6.435-6.068 13.838c-1.365 2.341-3.605 6.184-5.266 9.451 3.62-.569 7.967-1.512 10.615-2.087 5.745-1.247 9.208-1.967 11.829-1.967zM93.218 195.243a9.524 9.524 0 0 1-2.973-.479c-7.912-2.57-9.006-13.428-10.392-27.174-.235-2.333-.534-5.296-.818-7.173-1.697-.85-4.423-2.05-6.568-2.995-12.646-5.565-22.633-9.961-22.633-18.28s9.988-12.715 22.634-18.281c2.146-.944 4.871-2.144 6.568-2.994.284-1.876.583-4.84.818-7.173 1.385-13.746 2.48-24.603 10.391-27.174 7.91-2.569 15.179 5.57 24.38 15.877 1.561 1.749 3.544 3.97 4.877 5.321 1.873-.31 4.783-.941 7.073-1.438 13.502-2.931 24.167-5.246 29.057 1.485 4.889 6.73-.607 16.157-7.566 28.092-1.181 2.025-2.681 4.599-3.554 6.284.873 1.685 2.373 4.258 3.554 6.283 6.958 11.935 12.455 21.362 7.566 28.092-4.89 6.729-15.554 4.416-29.055 1.486-2.291-.497-5.202-1.129-7.075-1.438-1.333 1.351-3.316 3.573-4.877 5.321-8.039 9.007-14.602 16.358-21.407 16.358zm-24.524-56.099c3.263 1.667 7.334 3.459 9.814 4.551 7.844 3.453 11.105 4.96 13.044 7.629s2.365 6.236 3.225 14.763c.271 2.696.718 7.122 1.295 10.74 2.594-2.588 5.557-5.906 7.361-7.928 5.707-6.393 8.148-9.028 11.286-10.048 3.138-1.019 6.662-.323 15.038 1.495 2.648.575 6.995 1.518 10.615 2.087-1.66-3.268-3.9-7.11-5.265-9.451-4.316-7.404-6.068-10.54-6.068-13.838s1.752-6.435 6.069-13.839c1.365-2.341 3.605-6.183 5.265-9.451-3.62.569-7.967 1.513-10.616 2.087-8.375 1.817-11.898 2.515-15.036 1.496-3.138-1.02-5.579-3.655-11.286-10.048-1.805-2.021-4.767-5.34-7.362-7.928-.578 3.619-1.024 8.044-1.295 10.74-.86 8.528-1.286 12.095-3.225 14.764-1.938 2.668-5.199 4.176-13.043 7.628-2.481 1.091-6.552 2.883-9.816 4.551zm222.833 19.866c-6.515 0-15.062-4.73-26.735-11.537-2.906-1.694-6.679-3.894-8.792-4.917-2.113 1.023-5.886 3.223-8.792 4.917-15.894 9.267-25.992 14.688-33.057 9.555-7.062-5.131-5.029-16.411-1.127-34.391.713-3.288 1.64-7.555 1.959-9.881-1.626-1.694-4.884-4.602-7.394-6.842-13.725-12.253-22-20.184-19.302-28.486 2.641-8.126 13.588-9.801 31.305-11.593a7.5 7.5 0 0 1 1.51 14.924c-3.436.348-11.001 1.113-15.918 2.162 3.375 3.751 9.156 8.912 12.396 11.804 7.72 6.891 10.897 9.826 12.021 13.283 1.124 3.458.278 7.699-1.917 17.812-.921 4.245-2.565 11.821-3.09 16.839 4.611-2.05 11.308-5.955 15.06-8.143 8.939-5.212 12.712-7.327 16.348-7.327s7.408 2.115 16.348 7.327c3.752 2.188 10.449 6.093 15.06 8.143-.525-5.019-2.169-12.594-3.09-16.839-2.195-10.113-3.041-14.354-1.917-17.812 1.123-3.458 4.301-6.392 12.021-13.283 3.24-2.893 9.023-8.056 12.398-11.807-4.936-1.051-12.648-1.829-16.97-2.265-10.296-1.038-14.591-1.544-17.532-3.681s-4.75-6.066-8.919-15.537c-1.75-3.975-4.871-11.067-7.396-15.437-2.517 4.353-5.582 11.311-6.974 14.471a7.5 7.5 0 1 1-13.727-6.047c7.179-16.295 12.154-26.19 20.7-26.19 8.729 0 13.715 10.321 21.126 27.16 1.355 3.079 3.115 7.076 4.223 9.146 2.311.415 6.656.853 10.003 1.19 18.305 1.845 29.662 3.397 32.359 11.7 2.698 8.303-5.577 16.233-19.302 28.486-2.51 2.24-5.768 5.148-7.394 6.842.32 2.326 1.246 6.594 1.959 9.881 3.902 17.979 5.935 29.26-1.127 34.391-1.878 1.362-3.968 1.981-6.324 1.982z" fill="#ed2aff" opacity="1" data-original="#000000" class=""></path></g></svg>