
<svg version="1.0" xmlns="http://www.w3.org/2000/svg"
 width="1000.000000pt" height="1000.000000pt" viewBox="0 0 500.000000 500.000000"
 preserveAspectRatio="xMidYMid meet">

<g transform="translate(0.000000,500.000000) scale(0.100000,-0.100000)"
fill="#ed2aff" stroke="none">
<path d="M1704 3991 c-55 -25 -109 -75 -142 -130 -26 -43 -27 -54 -30 -195 -2
-81 0 -152 5 -156 4 -4 18 -4 31 1 16 6 22 16 22 38 0 108 91 246 198 298 55
27 63 28 257 33 183 5 203 7 235 27 33 21 70 69 70 92 0 8 -90 11 -302 11
-273 0 -307 -2 -344 -19z"/>
<path d="M2333 3875 c-23 -18 -48 -35 -55 -38 -8 -3 4 -21 35 -51 60 -59 107
-153 107 -217 0 -47 10 -59 46 -59 20 0 20 266 0 313 -12 31 -69 88 -84 86 -4
0 -26 -15 -49 -34z"/>
<path d="M1845 3810 c-99 -31 -185 -148 -193 -263 -5 -68 -14 -87 -44 -87 -55
0 -118 -69 -118 -129 0 -63 60 -131 116 -131 30 0 40 -17 47 -77 13 -111 84
-211 186 -260 50 -25 67 -27 166 -27 98 -1 116 2 166 26 107 49 189 163 189
263 0 48 19 75 53 75 69 0 130 94 107 164 -15 45 -72 96 -108 96 -41 0 -52 17
-52 85 0 72 -23 126 -76 185 -67 74 -98 84 -264 87 -80 1 -158 -2 -175 -7z
m62 -720 c59 -46 138 -46 203 0 34 24 60 21 60 -9 0 -27 -43 -59 -107 -77 -68
-20 -133 -7 -186 37 -31 26 -35 34 -27 50 13 24 25 24 57 -1z"/>
<path d="M2987 3642 c-10 -11 -17 -40 -19 -82 l-3 -65 -97 -3 c-54 -1 -98 -6
-98 -11 0 -4 45 -52 100 -107 l100 -99 0 -211 c0 -166 3 -214 14 -230 14 -18
33 -19 515 -22 l501 -3 25 25 25 25 0 378 c0 326 -2 382 -16 401 l-15 22 -508
0 c-473 0 -509 -1 -524 -18z m533 -50 c12 -10 41 -54 63 -97 38 -73 45 -80 77
-85 32 -6 40 -1 102 57 59 56 70 63 108 63 45 0 85 -32 97 -78 9 -39 -19 -79
-141 -201 l-113 -113 13 -71 c21 -107 18 -144 -11 -172 -35 -36 -74 -32 -163
16 l-76 42 -82 -42 c-93 -47 -131 -51 -161 -18 -31 34 -33 50 -18 144 8 51 10
91 5 97 -5 6 -36 39 -69 73 -52 53 -61 68 -61 98 0 59 30 79 138 95 l93 13 45
87 c25 50 54 92 67 98 33 16 62 14 87 -6z"/>
<path d="M3453 3538 c-5 -7 -26 -48 -48 -90 -44 -87 -48 -89 -169 -108 -38 -6
-73 -13 -78 -16 -18 -11 -6 -32 50 -90 86 -86 87 -89 67 -195 -9 -49 -13 -94
-10 -99 11 -17 33 -11 115 30 44 22 88 40 97 40 10 0 51 -18 91 -40 40 -22 83
-40 94 -40 20 0 21 4 15 65 -4 36 -9 70 -12 75 -3 5 -20 0 -38 -10 -63 -39
-90 -29 -188 66 -55 54 -90 97 -94 115 -9 40 14 81 56 102 45 22 77 12 129
-39 l36 -34 39 40 39 40 -33 11 c-27 9 -39 26 -77 100 -43 86 -61 103 -81 77z"/>
<path d="M3717 3336 c-74 -75 -141 -136 -149 -136 -8 0 -32 18 -53 41 -56 57
-72 65 -96 43 -10 -9 -19 -21 -19 -27 0 -19 144 -157 164 -157 14 0 78 57 186
165 141 141 163 168 154 183 -26 40 -48 27 -187 -112z"/>
<path d="M1870 2708 c0 -43 6 -80 15 -99 22 -41 71 -69 124 -69 92 0 145 67
139 175 l-3 60 -137 1 -138 0 0 -68z"/>
<path d="M1735 2627 c-4 -10 77 -252 88 -264 2 -2 30 25 63 59 54 56 57 62 40
72 -44 25 -96 80 -106 112 -10 30 -16 34 -46 34 -19 0 -37 -6 -39 -13z"/>
<path d="M2188 2593 c-16 -31 -40 -59 -69 -79 l-46 -30 58 -62 58 -61 46 119
c26 66 45 128 43 137 -2 12 -14 19 -35 21 -29 3 -34 -1 -55 -45z"/>
<path d="M1578 2577 c-84 -48 -141 -99 -193 -172 -89 -124 -115 -233 -115
-476 l0 -139 38 0 c51 0 97 -31 112 -74 13 -41 20 -44 43 -18 15 16 17 48 17
238 0 231 6 265 44 251 14 -6 16 -31 16 -220 l0 -213 88 29 c102 33 216 39
300 14 l52 -16 0 327 0 327 -79 -79 c-51 -51 -85 -77 -97 -74 -11 2 -24 21
-35 53 -87 247 -97 270 -115 273 -10 1 -45 -13 -76 -31z"/>
<path d="M2339 2583 c-5 -16 -33 -89 -62 -163 -66 -169 -67 -170 -166 -64
l-71 76 0 -341 c0 -321 1 -341 19 -350 10 -6 37 -26 60 -46 43 -35 43 -35 140
-35 86 0 102 -3 132 -23 19 -12 41 -37 49 -55 9 -18 19 -30 23 -26 4 4 7 143
7 309 0 256 2 304 15 315 8 7 21 10 30 6 12 -4 15 -47 17 -283 l3 -277 68 61
c37 34 80 64 96 68 16 3 32 14 36 22 11 31 -3 386 -18 438 -45 161 -147 289
-288 365 -70 37 -77 37 -90 3z"/>
<path d="M3359 2416 c-233 -67 -399 -284 -399 -522 0 -165 51 -287 171 -404
86 -84 250 -150 373 -150 133 1 274 60 376 160 284 277 194 737 -175 894 -62
26 -83 30 -185 32 -74 2 -131 -1 -161 -10z m-86 -389 c12 -27 24 -37 40 -37
27 0 47 17 47 41 0 27 27 44 45 29 43 -36 -21 -130 -88 -130 -66 0 -130 85
-96 126 17 21 31 13 52 -29z m367 13 c0 -23 34 -53 57 -48 10 2 24 17 32 33
16 35 29 45 48 38 23 -9 15 -68 -14 -97 -32 -32 -64 -41 -105 -30 -52 15 -92
89 -63 118 19 18 45 11 45 -14z m-390 -155 c19 -23 4 -45 -30 -45 -36 0 -37
-10 -9 -87 81 -214 367 -265 523 -93 41 45 76 118 76 156 0 19 -5 24 -24 24
-34 0 -51 24 -31 44 22 21 167 23 184 2 19 -23 2 -46 -34 -46 -31 0 -33 -2
-38 -45 -14 -101 -97 -209 -198 -258 -113 -55 -219 -56 -335 -1 -92 43 -180
161 -199 266 -6 32 -11 37 -38 40 -34 3 -50 34 -25 49 24 15 164 11 178 -6z"/>
<path d="M961 1796 c-8 -9 -10 -125 -9 -407 l3 -394 128 -3 c98 -2 127 0 128
10 4 74 0 789 -5 797 -11 17 -230 15 -245 -3z"/>
<path d="M1735 1748 c-113 -19 -197 -58 -267 -126 l-38 -36 0 -208 0 -208 508
0 c379 1 512 4 528 13 36 20 354 330 370 359 39 75 -10 159 -94 158 -41 -1
-58 -14 -207 -155 -75 -71 -147 -135 -159 -142 -15 -9 -94 -12 -272 -13 -224
0 -253 2 -258 16 -16 40 5 44 258 44 257 1 266 2 285 51 11 30 -8 83 -34 93
-9 3 -61 6 -116 6 -97 0 -100 1 -136 33 -115 98 -236 136 -368 115z"/>
<path d="M1272 1395 l2 -335 32 0 c63 0 64 4 64 337 0 278 -1 301 -18 316 -10
10 -33 17 -51 17 l-32 0 3 -335z"/>
</g>
</svg>
